<svg width="24" height="24" viewBox="0 0 24 24" fill="none" xmlns="http://www.w3.org/2000/svg">
<g clip-path="url(#clip0_904_13511)">
<path d="M22.6753 24C23.4068 24 23.9998 23.4069 23.9998 22.6754V1.32457C23.9998 0.592862 23.4067 0 22.6753 0H1.32457C0.592862 0 0 0.592952 0 1.32457V22.6753C0 23.4069 0.592862 23.9999 1.32457 23.9999L22.6753 24Z" fill="#485A96"/>
<path d="M16.5595 24V14.7059H19.6791L20.1462 11.0838H16.5594V8.77129C16.5594 7.72261 16.8506 7.00799 18.3545 7.00799L20.2724 7.00709V3.76752C19.9407 3.72346 18.8021 3.62482 17.4776 3.62482C14.7122 3.62482 12.819 5.31276 12.819 8.41268V11.0838H9.69136V14.7059H12.819V23.9999L16.5595 24Z" fill="white"/>
</g>
<defs>
<clipPath id="clip0_904_13511">
<rect width="24" height="24" fill="white"/>
</clipPath>
</defs>
</svg>
