<svg width="24" height="24" viewBox="0 0 24 24" fill="none" xmlns="http://www.w3.org/2000/svg">
<g clip-path="url(#clip0_904_13518)">
<path d="M24 0H0V24H24V0Z" fill="#C9353D"/>
<path d="M8.45768 20.1171C4.54073 18.4803 1.99102 13.8157 3.61256 9.07811C5.21661 4.39161 10.4056 1.93737 15.0778 3.67239C19.7633 5.41237 22.0808 10.5824 20.2643 15.2171C18.3838 20.0153 13.3422 21.7129 9.56222 20.5159C9.84481 19.8179 10.1664 19.1292 10.4019 18.4124C10.6385 17.6923 10.7893 16.9442 10.9667 16.2512C11.1195 16.3797 11.2729 16.516 11.4336 16.643C12.2689 17.3031 13.2139 17.3672 14.204 17.1292C15.256 16.8762 16.0874 16.2797 16.7031 15.4029C17.7444 13.9199 18.1118 12.2421 17.8602 10.4765C17.5999 8.65081 16.5189 7.3296 14.8242 6.66432C12.2707 5.66194 9.85003 5.9994 7.75321 7.83653C6.14057 9.24947 5.59846 11.6448 6.37413 13.5096C6.64298 14.1559 7.06786 14.6632 7.71066 14.9681C8.03643 15.1225 8.17472 15.0595 8.26899 14.7193C8.27599 14.6939 8.28452 14.669 8.29379 14.6444C8.47432 14.1683 8.43219 13.7769 8.11089 13.3173C7.52539 12.4797 7.62982 11.51 7.9123 10.5809C8.44799 8.81912 10.0221 7.64358 11.8681 7.62652C12.3626 7.62193 12.8716 7.66433 13.3506 7.78119C14.775 8.12871 15.6948 9.23036 15.7869 10.691C15.8609 11.8623 15.6778 13.0002 15.1686 14.0697C14.9164 14.5993 14.5837 15.0701 14.0884 15.4034C13.6231 15.7165 13.1143 15.8427 12.5623 15.6984C11.8017 15.4997 11.3699 14.8058 11.5622 14.0445C11.7616 13.2553 12.0196 12.4809 12.2152 11.691C12.2979 11.3569 12.3413 10.994 12.3074 10.6537C12.2149 9.72681 11.3391 9.29455 10.5204 9.74708C9.94698 10.0641 9.67087 10.5938 9.54279 11.2068C9.41087 11.8384 9.47475 12.4608 9.68024 13.0732C9.72153 13.1962 9.72764 13.3483 9.69851 13.4752C9.32656 15.0971 8.92874 16.7134 8.57648 18.3396C8.47369 18.8141 8.49275 19.3153 8.45857 19.8044C8.4521 19.898 8.45768 19.9926 8.45768 20.1171Z" fill="white"/>
</g>
<defs>
<clipPath id="clip0_904_13518">
<rect width="24" height="24" fill="white"/>
</clipPath>
</defs>
</svg>
