<svg width="24" height="24" viewBox="0 0 24 24" fill="none" xmlns="http://www.w3.org/2000/svg">
<g clip-path="url(#clip0_1405_12707)">
<path d="M19.5 0H4.5C2.01472 0 0 2.01472 0 4.5V19.5C0 21.9853 2.01472 24 4.5 24H19.5C21.9853 24 24 21.9853 24 19.5V4.5C24 2.01472 21.9853 0 19.5 0Z" fill="#BD081C"/>
<path d="M12.0919 5.96818C8.7975 5.96818 7.08562 8.08693 7.125 10.3969C7.14375 11.4694 7.7625 12.8063 8.7225 13.2301C8.86875 13.2938 8.94562 13.2657 8.97562 13.1326C9 13.0313 9.12 12.5344 9.1725 12.3038C9.18256 12.267 9.18266 12.2281 9.17278 12.1912C9.16289 12.1543 9.14339 12.1207 9.11625 12.0938C8.74288 11.6163 8.53374 11.031 8.52 10.4251C8.49375 8.81256 9.75 7.24881 11.9137 7.24881C13.7887 7.24881 15.1238 8.47318 15.1556 10.2244C15.1875 12.2026 14.1712 13.5751 12.8137 13.5751C12.0637 13.5751 11.5012 12.9826 11.6587 12.2513C11.8594 11.3832 12.2606 10.4438 12.2494 9.81381C12.24 9.25131 11.9156 8.78256 11.265 8.78256C10.4981 8.78256 9.89625 9.54381 9.915 10.5601C9.91732 10.9357 10.0018 11.3062 10.1625 11.6457C10.1625 11.6457 9.45937 14.7132 9.33187 15.2832C9.1125 16.2507 9.40687 17.8201 9.43312 17.9588C9.43489 17.9751 9.44159 17.9905 9.45234 18.0029C9.46308 18.0153 9.47736 18.0242 9.49326 18.0282C9.50915 18.0323 9.52592 18.0314 9.54131 18.0257C9.55669 18.02 9.56998 18.0098 9.57937 17.9963C9.6525 17.9007 10.5412 16.5901 10.7831 15.6432C10.8694 15.3001 11.2275 13.9032 11.2275 13.9032C11.4862 14.3588 12.2194 14.7432 12.9919 14.7432C15.2944 14.7432 16.92 12.7144 16.875 10.1926C16.8319 7.77568 14.7412 5.96631 12.0937 5.96631" fill="white"/>
</g>
<defs>
<clipPath id="clip0_1405_12707">
<rect width="24" height="24" fill="white"/>
</clipPath>
</defs>
</svg>
