<svg width="45" height="45" viewBox="0 0 45 45" fill="none" xmlns="http://www.w3.org/2000/svg">
<path d="M22.3207 1.68206C23.0567 1.68145 23.7884 1.79847 24.4906 2.02908L24.9728 0.423931C23.1472 -0.174933 21.1854 -0.13845 19.3813 0.527915C17.5772 1.19428 16.0279 2.45464 14.9656 4.12018L16.3017 5.05462C16.9617 4.01676 17.8566 3.16577 18.9067 2.57737C19.9568 1.98898 21.1296 1.68142 22.3207 1.68206Z" fill="black"/>
<path d="M28.5455 5.35909L29.923 4.49215C29.1487 3.14615 28.0616 2.02712 26.7629 1.23926L25.9583 2.6955C27.0215 3.34073 27.9115 4.25701 28.5455 5.35909Z" fill="black"/>
<path d="M17.6726 5.99037L19.0087 6.92481C19.3527 6.38706 19.8095 5.9386 20.3441 5.61358L19.5394 4.15723C18.7919 4.61151 18.1534 5.2385 17.6726 5.99037Z" fill="black"/>
<path d="M25.7825 7.09453L27.1599 6.22738C26.5771 5.21262 25.7159 4.40505 24.6884 3.90978C23.661 3.41451 22.5149 3.25449 21.3994 3.45054L21.6654 5.10996C21.8873 5.07115 22.1118 5.05167 22.3367 5.0517C23.0312 5.04891 23.7144 5.2359 24.3187 5.59417C24.923 5.95245 25.4276 6.4696 25.7825 7.09453Z" fill="black"/>
<path d="M20.333 7.84986L21.6696 8.78452C21.7446 8.66621 21.847 8.56974 21.9673 8.50413C22.0875 8.43852 22.2217 8.40592 22.3573 8.40938C22.4929 8.41283 22.6254 8.45223 22.7425 8.52389C22.8596 8.59555 22.9574 8.69713 23.0267 8.81911L24.4041 7.95197C24.1952 7.58704 23.9014 7.28337 23.5502 7.06924C23.199 6.85511 22.8018 6.73748 22.3954 6.72729C21.9891 6.71709 21.5869 6.81468 21.2263 7.01096C20.8657 7.20723 20.5584 7.49582 20.333 7.84986Z" fill="black"/>
<path d="M22.4843 25.6474C22.9282 25.6474 23.288 25.2707 23.288 24.8061C23.288 24.3415 22.9282 23.9648 22.4843 23.9648C22.0405 23.9648 21.6807 24.3415 21.6807 24.8061C21.6807 25.2707 22.0405 25.6474 22.4843 25.6474Z" fill="black"/>
<path d="M22.493 41.6348C23.3453 41.6338 24.1624 41.2789 24.7651 40.6481C25.3678 40.0172 25.7068 39.1619 25.7077 38.2697C25.7068 36.8359 25.2266 35.4476 24.3505 34.3456L22.493 32.0127L20.6355 34.3459C19.7595 35.4479 19.2793 36.836 19.2783 38.2697C19.2793 39.1619 19.6183 40.0172 20.2209 40.6481C20.8236 41.2789 21.6407 41.6338 22.493 41.6348ZM20.8857 36.5871C21.0988 36.5871 21.3032 36.6758 21.454 36.8335C21.6047 36.9913 21.6893 37.2053 21.6893 37.4284C21.6896 37.6514 21.7743 37.8653 21.925 38.023C22.0757 38.1807 22.2799 38.2694 22.493 38.2697C22.7062 38.2697 22.9106 38.3583 23.0613 38.5161C23.212 38.6739 23.2967 38.8878 23.2967 39.111C23.2967 39.3341 23.212 39.5481 23.0613 39.7058C22.9106 39.8636 22.7062 39.9522 22.493 39.9522C21.8538 39.9515 21.241 39.6853 20.789 39.2122C20.337 38.739 20.0827 38.0975 20.082 37.4284C20.082 37.2053 20.1667 36.9913 20.3174 36.8335C20.4681 36.6758 20.6725 36.5871 20.8857 36.5871Z" fill="black"/>
<path d="M27.3488 38.2696C27.3488 39.6083 26.8408 40.8922 25.9365 41.8388C25.0322 42.7854 23.8057 43.3172 22.5268 43.3172C21.2479 43.3172 20.0214 42.7854 19.1171 41.8388C18.2128 40.8922 17.7047 39.6083 17.7047 38.2696C17.7054 37.3791 17.8515 36.4953 18.1367 35.6564C17.1077 35.2006 16.1494 34.5866 15.2937 33.8345V44.1585C15.2939 44.3815 15.3787 44.5954 15.5294 44.7531C15.68 44.9108 15.8843 44.9995 16.0974 44.9998H28.9562C29.1692 44.9995 29.3735 44.9108 29.5242 44.7531C29.6748 44.5954 29.7596 44.3815 29.7598 44.1585V33.8399C28.9037 34.5899 27.9455 35.202 26.9168 35.656C27.2021 36.4951 27.3482 37.379 27.3488 38.2696Z" fill="black"/>
<path d="M22.4957 29.8547C22.6136 29.8547 22.7299 29.8818 22.8366 29.9341C22.9433 29.9864 23.0377 30.0627 23.1132 30.1574L24.0529 31.3374C25.5753 30.9396 26.9061 29.9726 27.7945 28.6187C28.683 27.2649 29.0678 25.6176 28.8763 23.9873C28.6848 22.3571 27.9304 20.8564 26.7551 19.7681C25.5798 18.6798 24.0649 18.0791 22.4957 18.0791C20.9266 18.0791 19.4117 18.6798 18.2364 19.7681C17.0611 20.8564 16.3067 22.3571 16.1152 23.9873C15.9237 25.6176 16.3085 27.2649 17.1969 28.6187C18.0854 29.9726 19.4162 30.9396 20.9386 31.3374L21.8783 30.157C21.9538 30.0623 22.0482 29.9862 22.1549 29.9339C22.2616 29.8817 22.378 29.8546 22.4957 29.8547ZM18.5312 24.1181C18.4958 24.3382 18.3782 24.5344 18.2045 24.6638C18.0308 24.7931 17.8152 24.8449 17.605 24.8078C17.3948 24.7707 17.2073 24.6476 17.0837 24.4658C16.9602 24.284 16.9107 24.0582 16.9462 23.8382C17.0692 23.0706 17.3361 22.3362 17.7317 21.6771C18.1272 21.0181 18.6435 20.4476 19.2508 19.9985C19.858 19.5494 20.5442 19.2307 21.2697 19.0606C21.9953 18.8905 22.7458 18.8725 23.478 19.0076C23.5907 19.0294 23.6974 19.0765 23.791 19.1457C23.8845 19.2149 23.9625 19.3045 24.0198 19.4084C24.077 19.5122 24.1119 19.6278 24.1223 19.7472C24.1326 19.8666 24.1181 19.987 24.0797 20.0999L24.0727 20.1209C24.0082 20.3075 23.8827 20.4641 23.7183 20.5629C23.554 20.6617 23.3615 20.6963 23.175 20.6605C22.6532 20.5675 22.1189 20.5832 21.6028 20.7068C21.0867 20.8303 20.599 21.0593 20.1676 21.3805C19.7362 21.7017 19.3696 22.1089 19.0888 22.5787C18.808 23.0485 18.6185 23.5717 18.5312 24.1182V24.1181ZM20.0847 24.807C20.0846 24.3807 20.1877 23.9612 20.3844 23.5879C20.5811 23.2145 20.8649 22.8995 21.2094 22.672C21.554 22.4446 21.9479 22.3123 22.3545 22.2875C22.7611 22.2626 23.1671 22.346 23.5346 22.5299L25.1419 20.8474C25.2927 20.6896 25.4971 20.601 25.7103 20.601C25.9234 20.601 26.1279 20.6896 26.2786 20.8474C26.4293 21.0052 26.514 21.2192 26.514 21.4423C26.514 21.6655 26.4293 21.8795 26.2785 22.0372L24.6712 23.7198C24.8272 24.0616 24.9077 24.4359 24.9068 24.8147C24.9058 25.1936 24.8233 25.5674 24.6655 25.9083C24.5077 26.2493 24.2786 26.5487 23.9951 26.7843C23.7117 27.0199 23.3813 27.1857 23.0283 27.2694C22.6753 27.3531 22.3088 27.3525 21.9561 27.2677C21.6033 27.1829 21.2733 27.016 20.9906 26.7795C20.7078 26.543 20.4796 26.2428 20.3228 25.9014C20.166 25.5599 20.0846 25.1859 20.0847 24.807Z" fill="black"/>
<path d="M11.6332 21.7588L10.8069 22.1913C10.6954 22.2497 10.5724 22.2801 10.4478 22.2802H0V27.3278H10.4478C10.5725 27.3278 10.6956 27.3582 10.8072 27.4167L11.634 27.8494C11.1243 25.8543 11.1243 23.754 11.634 21.7589L11.6332 21.7588Z" fill="black"/>
<path d="M34.5505 22.2801C34.4257 22.2801 34.3026 22.2497 34.191 22.1913L33.3647 21.7588C33.8734 23.7534 33.8741 25.8526 33.3667 27.8475L34.191 27.4164C34.3026 27.358 34.4257 27.3276 34.5505 27.3277H44.9982V22.2801H34.5505Z" fill="black"/>
<path d="M24.8996 15.0324V11.0266L22.4886 9.76465L20.0776 11.0266V15.0324C18.1192 15.562 16.3694 16.7227 15.0757 18.3503C13.7819 19.9779 13.0097 21.99 12.8681 24.1021C12.7266 26.2142 13.2229 28.3195 14.2869 30.1202C15.3509 31.9209 16.9288 33.3259 18.7973 34.1366C18.9777 33.8328 19.1778 33.5424 19.3963 33.2675L19.8144 32.7423C18.027 32.0813 16.5205 30.78 15.5612 29.0686C14.6018 27.3571 14.2514 25.3457 14.572 23.39C14.8925 21.4343 15.8634 19.6602 17.3128 18.3813C18.7623 17.1025 20.597 16.4013 22.4926 16.4018C24.3883 16.4022 26.2227 17.1043 27.6716 18.3838C29.1205 19.6633 30.0905 21.4379 30.4103 23.3937C30.73 25.3496 30.3787 27.3609 29.4186 29.0719C28.4586 30.7828 26.9515 32.0834 25.1638 32.7436L25.5808 33.2675C25.7997 33.5429 26.0001 33.8338 26.1807 34.1382C28.0491 33.3271 29.6268 31.9219 30.6906 30.121C31.7544 28.3202 32.2506 26.2148 32.109 24.1027C31.9674 21.9905 31.1951 19.9784 29.9014 18.3507C28.6077 16.7231 26.858 15.5623 24.8996 15.0324ZM23.2923 14.7485C23.0272 14.7254 22.7592 14.713 22.4886 14.713C22.218 14.713 21.95 14.7254 21.6849 14.7485V13.8718C21.6849 13.6486 21.7696 13.4347 21.9203 13.2769C22.071 13.1191 22.2755 13.0305 22.4886 13.0305C22.7018 13.0305 22.9062 13.1191 23.0569 13.2769C23.2076 13.4347 23.2923 13.6486 23.2923 13.8718V14.7485Z" fill="black"/>
</svg>
