<svg width="44" height="44" viewBox="0 0 44 44" fill="none" xmlns="http://www.w3.org/2000/svg">
<rect width="44" height="44" rx="22" fill="white"/>
<g clip-path="url(#clip0_1069_480)">
<path d="M34.0285 9.97131C32.5667 8.50957 30.1968 8.50957 28.735 9.97131L25.7374 12.9689L18.5258 10.565C17.3525 10.174 16.059 10.4793 15.1846 11.3538L13.1871 13.3513C13.0052 13.5332 12.9125 13.7858 12.9337 14.0422C12.955 14.2985 13.0879 14.5325 13.2972 14.682L19.5547 19.1516L16.8023 21.904L11.3884 22.2225C11.1745 22.2351 10.9726 22.3258 10.821 22.4773L9.13105 24.1673C8.92812 24.3702 8.8376 24.6598 8.88881 24.9421C8.94001 25.2245 9.12643 25.4638 9.38769 25.5826L12.9613 27.2069L16.7928 31.0385L18.4172 34.6121C18.5359 34.8733 18.7752 35.0598 19.0577 35.1109C19.34 35.1622 19.6296 35.0717 19.8325 34.8687L21.5225 33.1787C21.674 33.0272 21.7647 32.8253 21.7772 32.6114L22.0957 27.1975L24.8481 24.4451L29.3177 30.7026C29.4672 30.9119 29.7012 31.0448 29.9576 31.066C30.2139 31.0872 30.4666 30.9946 30.6485 30.8127L32.4371 29.0241C33.4396 28.0216 33.7896 26.5387 33.3413 25.1937L31.0308 18.2623L34.0285 15.2647C35.4902 13.803 35.4902 11.433 34.0285 9.97131Z" fill="#2196F3"/>
</g>
<defs>
<clipPath id="clip0_1069_480">
<rect width="28" height="28" fill="white" transform="translate(8 8)"/>
</clipPath>
</defs>
</svg>
