<svg width="578" height="197" viewBox="0 0 578 197" fill="none" xmlns="http://www.w3.org/2000/svg">
<path d="M7.5 79.8242H100.377V172.578H22.6353L61.6106 133.684L72.7987 144.995V143.401C72.7987 131.908 72.7726 120.415 72.8249 108.948C72.8249 107.616 72.5635 107.146 71.1258 107.146C59.7808 107.198 48.4097 107.172 37.0648 107.172H35.3918L35.1827 107.538L46.2401 118.639L7.5 157.323V79.8242Z" fill="url(#paint0_linear_164_317)"/>
<path d="M113.167 67.5214L111.755 67.4691L31.7397 67.5214C30.7202 67.5214 29.9622 67.2863 29.2302 66.5288C20.6562 57.9091 12.056 49.3067 3.42965 40.7218L2.75 39.9644H140.771V177.514L140.432 177.749C139.386 176.652 138.366 175.529 137.321 174.484C129.636 166.788 121.942 159.108 114.239 151.446C113.481 150.715 113.245 149.931 113.245 148.912C113.28 122.165 113.289 95.4179 113.272 68.6707C113.272 68.3311 113.219 68.0177 113.167 67.5214Z" fill="url(#paint1_linear_164_317)"/>
<path d="M199.532 54.5913H171.719V39.7026H243.5V54.5913H215.687V130.105H199.532V54.5913Z" fill="#231F20"/>
<path d="M254.738 130.106H239.263V63.577C245.275 60.7821 253.457 59.3716 263.861 59.3716C269.193 59.3716 273.968 59.9288 278.186 61.0433L275.65 75.514C272.853 74.4692 269.246 73.9729 264.828 73.9729C260.41 73.9729 256.881 74.443 254.738 75.3573V130.106Z" fill="#231F20"/>
<path d="M285.219 45.763C283.473 43.958 282.514 41.5344 282.553 39.0239C282.553 36.3857 283.442 34.1916 285.219 32.4154C286.089 31.5094 287.138 30.7933 288.298 30.3122C289.459 29.8312 290.707 29.5957 291.963 29.6205C293.197 29.5916 294.423 29.826 295.559 30.3079C296.695 30.7899 297.715 31.5084 298.551 32.4154C300.433 34.2961 301.374 36.4902 301.374 39.0239C301.38 40.2558 301.133 41.4759 300.647 42.6082C300.161 43.7406 299.448 44.7611 298.551 45.6062C297.725 46.514 296.715 47.2353 295.588 47.7218C294.461 48.2082 293.243 48.4488 292.016 48.4272C289.492 48.444 287.058 47.49 285.219 45.763ZM299.675 130.106H284.226V60.7822H299.675V130.106Z" fill="#231F20"/>
<path d="M327.355 130.105H311.906V63.8639C319.191 60.8688 329.02 59.3712 341.393 59.3712C348.712 59.3712 354.541 61.278 358.959 65.1177C365.599 61.2693 373.65 59.3538 383.113 59.3712C401.289 59.3712 410.377 68.4002 410.377 86.4581V130.105H394.928V86.876C394.928 82.3049 393.909 78.9876 391.896 76.9764C389.883 74.9651 386.825 73.9725 382.694 73.9725C376.229 73.9725 371.123 75.0957 367.376 77.342C368.317 80.0586 368.788 83.4281 368.788 87.4506V130.105H353.469V86.876C353.469 82.2004 352.45 78.8831 350.385 76.898C348.32 74.9128 345.131 73.9725 340.844 73.9725C335.485 73.9725 330.989 74.521 327.355 75.6442V130.105Z" fill="#231F20"/>
<path d="M418.092 128.147L420.497 113.258C426.666 115.783 434.064 117.046 442.69 117.046C446.716 117.046 449.905 116.497 452.31 115.374C454.715 114.251 455.891 112.605 455.891 110.464C455.891 106.807 451.534 104.047 442.821 102.183C439.997 101.693 437.204 101.039 434.456 100.224C431.813 99.3495 429.271 98.1936 426.875 96.7765C424.258 95.2819 422.132 93.0582 420.758 90.377C419.373 87.6866 418.693 84.4476 418.798 80.7124C418.798 66.4855 428.348 59.3721 447.447 59.3721C454.767 59.3721 461.537 60.7826 467.837 63.5775L465.432 78.5967C459.437 75.5145 452.832 73.9734 445.618 73.9734C438.403 73.9734 434.665 75.9846 434.403 80.0072C434.403 83.368 438.751 86.0323 447.447 88C450.251 88.5006 453.018 89.1812 455.734 90.0374C458.39 90.9223 460.941 92.0961 463.341 93.5375C465.909 95.0344 468.002 97.2255 469.379 99.8587C470.765 102.523 471.47 105.684 471.47 109.34C471.47 124.194 461.128 131.63 440.442 131.647C432.852 131.687 425.306 130.505 418.092 128.147Z" fill="#231F20"/>
<path d="M537.209 90.2464C537.209 94.7392 536.739 98.396 535.798 101.191H492.535V101.896C492.535 106.667 494.173 110.385 497.45 113.05C500.726 115.714 505.457 117.046 511.644 117.046C519.521 117.046 526.5 115.601 532.582 112.71L534.961 127.311C528.609 130.211 520.767 131.647 511.513 131.647C499.698 131.647 490.941 128.722 485.242 122.871C479.543 117.02 476.685 107.973 476.668 95.7317C476.668 84.3258 479.221 75.4101 484.327 68.9844C489.433 62.5588 497.232 59.3547 507.723 59.3721C517.377 59.3721 524.705 61.9929 529.707 67.2344C534.708 72.4759 537.209 80.1466 537.209 90.2464ZM492.535 87.8695V88.5747H522.466V87.8695C522.466 77.8393 517.395 72.8503 507.305 72.8503C497.214 72.8503 492.535 77.8393 492.535 87.8695Z" fill="#231F20"/>
<path d="M546.624 109.758V32.7026H562.073V106.519C562.073 110.28 562.517 112.918 563.406 114.459C564.295 116.001 565.785 116.784 567.85 116.784C569.49 116.81 571.115 116.471 572.608 115.792L574.856 129.975C572.608 130.915 569.706 131.385 566.151 131.385C560.051 131.385 555.276 129.583 551.826 125.979C548.375 122.374 546.641 116.967 546.624 109.758Z" fill="#231F20"/>
<path d="M191.116 151.733L187.483 173.178C187.463 173.356 187.376 173.52 187.24 173.636C187.104 173.752 186.929 173.813 186.751 173.805H186.28C186.102 173.814 185.927 173.758 185.788 173.648C185.648 173.537 185.554 173.38 185.522 173.204L181.679 154.476L177.758 173.204C177.759 173.29 177.741 173.375 177.706 173.454C177.671 173.532 177.62 173.603 177.555 173.659C177.491 173.716 177.415 173.759 177.333 173.784C177.251 173.809 177.164 173.816 177.079 173.805H176.53C176.351 173.813 176.176 173.752 176.04 173.636C175.904 173.52 175.818 173.356 175.798 173.178L172.164 151.733C172.086 151.263 172.321 151.002 172.792 151.002H173.21C173.386 150.995 173.558 151.056 173.69 151.173C173.821 151.29 173.902 151.453 173.916 151.629L176.922 170.227L180.686 151.603C180.712 151.425 180.805 151.264 180.946 151.152C181.087 151.041 181.265 150.987 181.444 151.002H181.941C182.117 150.987 182.292 151.042 182.429 151.154C182.565 151.266 182.653 151.427 182.673 151.603L186.437 170.227L189.469 151.629C189.473 151.543 189.493 151.459 189.529 151.381C189.565 151.303 189.616 151.233 189.679 151.175C189.742 151.116 189.816 151.071 189.897 151.042C189.977 151.012 190.063 150.999 190.149 151.002H190.515C190.959 151.002 191.194 151.263 191.116 151.733Z" fill="#2C2829"/>
<path d="M194.932 151.002H195.351C195.439 150.994 195.527 151.005 195.61 151.035C195.693 151.065 195.768 151.113 195.831 151.175C195.893 151.238 195.941 151.313 195.971 151.396C196.001 151.479 196.012 151.567 196.004 151.655V161.398H203.35V151.655C203.336 151.566 203.344 151.475 203.372 151.39C203.401 151.305 203.448 151.227 203.512 151.164C203.575 151.1 203.653 151.053 203.738 151.025C203.824 150.996 203.914 150.989 204.003 151.002H204.421C204.511 150.99 204.603 150.998 204.689 151.026C204.775 151.054 204.854 151.101 204.919 151.164C204.985 151.227 205.035 151.304 205.066 151.389C205.098 151.474 205.11 151.565 205.101 151.655V173.152C205.11 173.242 205.098 173.333 205.066 173.418C205.035 173.503 204.985 173.58 204.919 173.643C204.854 173.706 204.775 173.753 204.689 173.781C204.603 173.809 204.511 173.817 204.421 173.805H204.003C203.914 173.818 203.824 173.81 203.738 173.782C203.653 173.754 203.575 173.706 203.512 173.643C203.448 173.579 203.401 173.502 203.372 173.417C203.344 173.331 203.336 173.241 203.35 173.152V163.017H196.004V173.152C196.012 173.24 196.001 173.328 195.971 173.411C195.941 173.494 195.893 173.569 195.831 173.632C195.768 173.694 195.693 173.742 195.61 173.772C195.527 173.802 195.439 173.813 195.351 173.805H194.932C194.843 173.817 194.751 173.809 194.665 173.781C194.579 173.753 194.5 173.706 194.435 173.643C194.369 173.58 194.319 173.503 194.287 173.418C194.256 173.333 194.244 173.242 194.253 173.152V151.655C194.244 151.565 194.256 151.474 194.287 151.389C194.319 151.304 194.369 151.227 194.435 151.164C194.5 151.101 194.579 151.054 194.665 151.026C194.751 150.998 194.843 150.99 194.932 151.002Z" fill="#2C2829"/>
<path d="M217.776 173.805H210.091C209.646 173.805 209.385 173.57 209.385 173.152V151.655C209.385 151.237 209.646 151.002 210.091 151.002H217.671C217.761 150.99 217.853 150.998 217.939 151.026C218.025 151.054 218.104 151.101 218.169 151.164C218.235 151.227 218.285 151.304 218.316 151.389C218.348 151.474 218.36 151.565 218.351 151.655V151.969C218.359 152.06 218.347 152.152 218.315 152.238C218.284 152.324 218.234 152.402 218.17 152.466C218.105 152.531 218.027 152.581 217.941 152.612C217.854 152.644 217.763 152.656 217.671 152.648H211.162V161.424H216.652C216.745 161.412 216.84 161.421 216.929 161.45C217.019 161.48 217.1 161.529 217.168 161.594C217.236 161.659 217.288 161.739 217.321 161.827C217.354 161.915 217.366 162.01 217.358 162.103V162.364C217.366 162.459 217.353 162.554 217.32 162.643C217.287 162.733 217.236 162.814 217.168 162.881C217.101 162.948 217.02 163 216.931 163.032C216.842 163.065 216.746 163.078 216.652 163.07H211.162V172.186H217.776C217.867 172.178 217.959 172.19 218.045 172.221C218.131 172.252 218.209 172.302 218.274 172.367C218.339 172.432 218.389 172.51 218.42 172.596C218.451 172.682 218.463 172.774 218.455 172.865V173.152C218.464 173.242 218.452 173.333 218.421 173.418C218.389 173.503 218.339 173.58 218.274 173.643C218.208 173.706 218.13 173.753 218.043 173.781C217.957 173.809 217.866 173.817 217.776 173.805Z" fill="#2C2829"/>
<path d="M232.209 173.805H231.686C231.516 173.817 231.346 173.768 231.208 173.668C231.069 173.568 230.97 173.422 230.928 173.257L227.373 163.958H223.4V173.152C223.413 173.241 223.405 173.332 223.377 173.417C223.349 173.502 223.301 173.58 223.238 173.643C223.174 173.707 223.096 173.754 223.011 173.782C222.926 173.811 222.835 173.818 222.746 173.805H222.328C222.238 173.817 222.147 173.809 222.06 173.781C221.974 173.753 221.895 173.706 221.83 173.643C221.765 173.58 221.714 173.503 221.683 173.418C221.651 173.333 221.64 173.242 221.648 173.152V151.655C221.64 151.565 221.651 151.474 221.683 151.389C221.714 151.304 221.765 151.227 221.83 151.164C221.895 151.101 221.974 151.054 222.06 151.026C222.147 150.998 222.238 150.99 222.328 151.002H227.033C230.484 151.002 232.235 152.648 232.235 155.834V159.152C232.235 161.642 231.19 163.157 229.098 163.697L232.732 173.022C232.889 173.466 232.706 173.805 232.209 173.805ZM230.484 158.603V156.409C230.484 153.719 229.464 152.648 226.903 152.648H223.4V162.364H226.903C229.464 162.364 230.484 161.267 230.484 158.603Z" fill="#2C2829"/>
<path d="M244.696 173.805H237.011C236.921 173.817 236.829 173.809 236.743 173.781C236.657 173.753 236.578 173.706 236.513 173.643C236.447 173.58 236.397 173.503 236.365 173.418C236.334 173.333 236.322 173.242 236.331 173.152V151.655C236.322 151.565 236.334 151.474 236.365 151.389C236.397 151.304 236.447 151.227 236.513 151.164C236.578 151.101 236.657 151.054 236.743 151.026C236.829 150.998 236.921 150.99 237.011 151.002H244.617C244.707 150.99 244.799 150.998 244.885 151.026C244.971 151.054 245.05 151.101 245.115 151.164C245.181 151.227 245.231 151.304 245.263 151.389C245.294 151.474 245.306 151.565 245.297 151.655V151.969C245.305 152.06 245.293 152.152 245.262 152.238C245.23 152.324 245.18 152.402 245.116 152.466C245.051 152.531 244.973 152.581 244.887 152.612C244.801 152.644 244.709 152.656 244.617 152.648H238.082V161.424H243.598C243.689 161.416 243.781 161.428 243.867 161.46C243.953 161.491 244.031 161.541 244.096 161.605C244.161 161.67 244.211 161.748 244.242 161.834C244.273 161.92 244.286 162.012 244.278 162.103V162.364C244.29 162.458 244.281 162.552 244.251 162.642C244.222 162.731 244.173 162.813 244.107 162.88C244.042 162.948 243.962 163 243.874 163.033C243.786 163.066 243.692 163.078 243.598 163.07H238.082V172.186H244.696C244.789 172.174 244.884 172.183 244.973 172.212C245.063 172.241 245.144 172.291 245.212 172.356C245.28 172.421 245.332 172.501 245.365 172.589C245.398 172.677 245.41 172.771 245.402 172.865V173.152C245.402 173.57 245.14 173.805 244.696 173.805Z" fill="#2C2829"/>
<path d="M263.598 173.805H263.127C263.039 173.816 262.95 173.809 262.865 173.784C262.78 173.759 262.701 173.718 262.632 173.661C262.564 173.605 262.507 173.536 262.467 173.457C262.426 173.379 262.402 173.292 262.395 173.204L261.271 167.928H255.102L253.952 173.204C253.949 173.291 253.928 173.377 253.89 173.455C253.852 173.534 253.798 173.604 253.732 173.66C253.665 173.717 253.588 173.759 253.504 173.784C253.421 173.809 253.333 173.816 253.246 173.805H252.854C252.41 173.805 252.2 173.544 252.279 173.047L257.089 151.603C257.109 151.427 257.196 151.266 257.333 151.154C257.469 151.042 257.644 150.987 257.821 151.002H258.579C258.755 150.987 258.93 151.042 259.067 151.154C259.203 151.266 259.291 151.427 259.311 151.603L264.199 173.047C264.303 173.544 264.068 173.805 263.598 173.805ZM260.905 166.335L258.187 153.771L255.468 166.335H260.905Z" fill="#2C2829"/>
<path d="M277.848 173.805H277.325C277.154 173.817 276.985 173.768 276.847 173.668C276.708 173.568 276.609 173.422 276.567 173.257L273.038 163.958H269.065V173.152C269.073 173.24 269.061 173.328 269.031 173.411C269.001 173.494 268.953 173.569 268.891 173.632C268.829 173.694 268.753 173.742 268.67 173.772C268.587 173.802 268.499 173.813 268.411 173.805H267.967C267.877 173.817 267.785 173.809 267.699 173.781C267.613 173.753 267.534 173.706 267.469 173.643C267.403 173.58 267.353 173.503 267.322 173.418C267.29 173.333 267.278 173.242 267.287 173.152V151.655C267.278 151.565 267.29 151.474 267.322 151.389C267.353 151.304 267.403 151.227 267.469 151.164C267.534 151.101 267.613 151.054 267.699 151.026C267.785 150.998 267.877 150.99 267.967 151.002H272.672C276.122 151.002 277.874 152.648 277.874 155.834V159.152C277.874 161.633 276.828 163.148 274.763 163.697L278.371 173.022C278.527 173.466 278.344 173.805 277.848 173.805ZM276.122 158.603V156.409C276.122 153.719 275.103 152.648 272.541 152.648H269.065V162.364H272.541C275.103 162.364 276.122 161.267 276.122 158.603Z" fill="#2C2829"/>
<path d="M290.443 151.655V151.969C290.451 152.06 290.439 152.152 290.408 152.238C290.376 152.324 290.327 152.402 290.262 152.466C290.197 152.531 290.119 152.581 290.033 152.612C289.947 152.644 289.855 152.656 289.764 152.648H286.156V173.152C286.165 173.242 286.153 173.333 286.122 173.418C286.09 173.503 286.04 173.58 285.974 173.643C285.909 173.706 285.83 173.753 285.744 173.781C285.658 173.809 285.566 173.817 285.477 173.805H285.032C284.945 173.814 284.858 173.803 284.776 173.773C284.694 173.743 284.62 173.694 284.559 173.631C284.499 173.569 284.453 173.493 284.427 173.41C284.4 173.327 284.392 173.239 284.405 173.152V152.648H280.771C280.68 152.656 280.588 152.644 280.502 152.612C280.416 152.581 280.338 152.531 280.273 152.466C280.208 152.402 280.158 152.324 280.127 152.238C280.096 152.152 280.084 152.06 280.092 151.969V151.655C280.083 151.565 280.095 151.474 280.126 151.389C280.158 151.304 280.208 151.227 280.273 151.164C280.339 151.101 280.418 151.054 280.504 151.026C280.59 150.998 280.681 150.99 280.771 151.002H289.764C289.853 150.99 289.945 150.998 290.031 151.026C290.117 151.054 290.196 151.101 290.262 151.164C290.327 151.227 290.377 151.304 290.409 151.389C290.44 151.474 290.452 151.565 290.443 151.655Z" fill="#2C2829"/>
<path d="M306.153 169.417C306.114 169.569 306.027 169.705 305.904 169.804C305.782 169.902 305.631 169.959 305.474 169.966C305.311 169.97 305.151 169.917 305.023 169.817C304.894 169.717 304.804 169.576 304.768 169.417L299.618 155.469V173.152C299.626 173.24 299.615 173.328 299.585 173.411C299.555 173.494 299.507 173.569 299.445 173.632C299.382 173.694 299.307 173.742 299.224 173.772C299.141 173.802 299.052 173.813 298.965 173.805H298.625C298.535 173.817 298.443 173.809 298.357 173.781C298.271 173.753 298.192 173.706 298.127 173.643C298.062 173.58 298.011 173.503 297.98 173.418C297.948 173.333 297.936 173.242 297.945 173.152V151.655C297.936 151.565 297.948 151.474 297.98 151.389C298.011 151.304 298.062 151.227 298.127 151.164C298.192 151.101 298.271 151.054 298.357 151.026C298.443 150.998 298.535 150.99 298.625 151.002H299.121C299.295 150.997 299.464 151.051 299.602 151.156C299.74 151.26 299.838 151.409 299.88 151.577L305.395 166.805L311.015 151.577C311.066 151.409 311.17 151.262 311.312 151.159C311.453 151.055 311.624 151 311.8 151.002H312.349C312.438 150.99 312.53 150.998 312.616 151.026C312.702 151.054 312.781 151.101 312.846 151.164C312.912 151.227 312.962 151.304 312.994 151.389C313.025 151.474 313.037 151.565 313.028 151.655V173.152C313.037 173.242 313.025 173.333 312.994 173.418C312.962 173.503 312.912 173.58 312.846 173.643C312.781 173.706 312.702 173.753 312.616 173.781C312.53 173.809 312.438 173.817 312.349 173.805H311.956C311.867 173.817 311.775 173.809 311.689 173.781C311.603 173.753 311.524 173.706 311.459 173.643C311.393 173.58 311.343 173.503 311.311 173.418C311.28 173.333 311.268 173.242 311.277 173.152V155.469L306.153 169.417Z" fill="#2C2829"/>
<path d="M325.712 173.805H318.027C317.937 173.817 317.846 173.809 317.76 173.781C317.673 173.753 317.595 173.706 317.529 173.643C317.464 173.58 317.414 173.503 317.382 173.418C317.351 173.333 317.339 173.242 317.348 173.152V151.655C317.339 151.565 317.351 151.474 317.382 151.389C317.414 151.304 317.464 151.227 317.529 151.164C317.595 151.101 317.673 151.054 317.76 151.026C317.846 150.998 317.937 150.99 318.027 151.002H325.608C325.698 150.99 325.789 150.998 325.875 151.026C325.962 151.054 326.04 151.101 326.106 151.164C326.171 151.227 326.221 151.304 326.253 151.389C326.284 151.474 326.296 151.565 326.288 151.655V151.969C326.296 152.06 326.283 152.152 326.252 152.238C326.221 152.324 326.171 152.402 326.106 152.466C326.041 152.531 325.963 152.581 325.877 152.612C325.791 152.644 325.699 152.656 325.608 152.648H319.099V161.424H324.615C324.706 161.416 324.798 161.428 324.884 161.46C324.97 161.491 325.048 161.541 325.113 161.605C325.178 161.67 325.227 161.748 325.259 161.834C325.29 161.92 325.302 162.012 325.294 162.103V162.364C325.306 162.458 325.297 162.552 325.268 162.642C325.238 162.731 325.189 162.813 325.124 162.88C325.059 162.948 324.979 163 324.891 163.033C324.803 163.066 324.708 163.078 324.615 163.07H319.099V172.186H325.712C325.804 172.178 325.896 172.19 325.982 172.221C326.068 172.252 326.146 172.302 326.211 172.367C326.275 172.432 326.325 172.51 326.357 172.596C326.388 172.682 326.4 172.774 326.392 172.865V173.152C326.401 173.242 326.389 173.333 326.358 173.418C326.326 173.503 326.276 173.58 326.21 173.643C326.145 173.706 326.066 173.753 325.98 173.781C325.894 173.809 325.802 173.817 325.712 173.805Z" fill="#2C2829"/>
<path d="M337.969 173.805H330.258C330.168 173.817 330.076 173.809 329.99 173.781C329.904 173.753 329.825 173.706 329.76 173.643C329.694 173.58 329.644 173.503 329.613 173.418C329.581 173.333 329.569 173.242 329.578 173.152V151.655C329.569 151.565 329.581 151.474 329.613 151.389C329.644 151.304 329.694 151.227 329.76 151.164C329.825 151.101 329.904 151.054 329.99 151.026C330.076 150.998 330.168 150.99 330.258 151.002H337.864C337.954 150.99 338.046 150.998 338.132 151.026C338.218 151.054 338.297 151.101 338.362 151.164C338.428 151.227 338.478 151.304 338.51 151.389C338.541 151.474 338.553 151.565 338.544 151.655V151.969C338.552 152.06 338.54 152.152 338.509 152.238C338.477 152.324 338.428 152.402 338.363 152.466C338.298 152.531 338.22 152.581 338.134 152.612C338.048 152.644 337.956 152.656 337.864 152.648H331.356V161.424H336.845C336.936 161.416 337.028 161.428 337.114 161.46C337.2 161.491 337.279 161.541 337.343 161.605C337.408 161.67 337.458 161.748 337.489 161.834C337.521 161.92 337.533 162.012 337.525 162.103V162.364C337.537 162.458 337.528 162.552 337.498 162.642C337.469 162.731 337.42 162.813 337.354 162.88C337.289 162.948 337.21 163 337.121 163.033C337.033 163.066 336.939 163.078 336.845 163.07H331.356V172.186H337.969C338.06 172.178 338.152 172.19 338.238 172.221C338.324 172.252 338.403 172.302 338.467 172.367C338.532 172.432 338.582 172.51 338.613 172.596C338.645 172.682 338.657 172.774 338.649 172.865V173.152C338.657 173.242 338.646 173.333 338.614 173.418C338.583 173.503 338.532 173.58 338.467 173.643C338.402 173.706 338.323 173.753 338.237 173.781C338.15 173.809 338.059 173.817 337.969 173.805Z" fill="#2C2829"/>
<path d="M350.487 151.655V151.969C350.495 152.06 350.483 152.152 350.452 152.238C350.42 152.324 350.371 152.402 350.306 152.466C350.241 152.531 350.163 152.581 350.077 152.612C349.991 152.644 349.899 152.656 349.808 152.648H346.2V173.152C346.209 173.242 346.197 173.333 346.166 173.418C346.134 173.503 346.084 173.58 346.018 173.643C345.953 173.706 345.874 173.753 345.788 173.781C345.702 173.809 345.61 173.817 345.521 173.805H345.076C344.989 173.814 344.902 173.803 344.82 173.773C344.738 173.743 344.664 173.694 344.603 173.631C344.543 173.569 344.497 173.493 344.471 173.41C344.444 173.327 344.436 173.239 344.449 173.152V152.648H340.815C340.724 152.656 340.632 152.644 340.546 152.612C340.46 152.581 340.382 152.531 340.317 152.466C340.252 152.402 340.202 152.324 340.171 152.238C340.14 152.152 340.128 152.06 340.136 151.969V151.655C340.127 151.565 340.139 151.474 340.17 151.389C340.202 151.304 340.252 151.227 340.317 151.164C340.383 151.101 340.461 151.054 340.548 151.026C340.634 150.998 340.725 150.99 340.815 151.002H349.808C349.897 150.99 349.989 150.998 350.075 151.026C350.161 151.054 350.24 151.101 350.305 151.164C350.371 151.227 350.421 151.304 350.453 151.389C350.484 151.474 350.496 151.565 350.487 151.655Z" fill="#2C2829"/>
<path d="M362.071 158.89H361.653C361.564 158.894 361.475 158.879 361.392 158.846C361.309 158.813 361.234 158.763 361.172 158.699C361.11 158.634 361.063 158.558 361.033 158.474C361.003 158.389 360.992 158.3 360.999 158.211V155.965C360.999 153.457 360.084 152.334 357.627 152.334C355.17 152.334 354.281 153.457 354.281 155.965V157.558C354.281 159.256 354.856 159.7 356.581 160.614L360.084 162.547C361.679 163.383 362.803 164.663 362.803 166.387V169.312C362.803 172.551 361.156 174.066 357.706 174.066H357.627C354.177 174.066 352.53 172.604 352.53 169.312V166.282C352.522 166.191 352.534 166.099 352.565 166.013C352.597 165.927 352.646 165.849 352.711 165.784C352.776 165.72 352.854 165.67 352.94 165.639C353.026 165.607 353.118 165.595 353.209 165.603H353.628C353.717 165.599 353.806 165.614 353.889 165.647C353.972 165.68 354.046 165.731 354.108 165.795C354.17 165.859 354.218 165.936 354.247 166.02C354.277 166.104 354.289 166.194 354.281 166.282V168.79C354.281 171.271 355.196 172.473 357.679 172.473C360.163 172.473 361.051 171.271 361.051 168.79V166.961C361.051 165.264 360.372 164.689 358.647 163.696L355.222 161.842C353.34 160.771 352.53 159.909 352.53 158.081V155.442C352.53 152.308 354.464 150.741 357.601 150.741H357.679C360.79 150.741 362.751 152.308 362.751 155.442V158.211C362.759 158.302 362.747 158.394 362.715 158.48C362.684 158.566 362.634 158.644 362.569 158.709C362.505 158.774 362.426 158.824 362.34 158.855C362.254 158.886 362.162 158.898 362.071 158.89Z" fill="#2C2829"/>
<path d="M382.331 155.834V168.973C382.331 172.186 380.58 173.805 377.129 173.805H372.503C372.058 173.805 371.797 173.57 371.797 173.152V151.655C371.797 151.237 372.058 151.002 372.503 151.002H377.129C380.58 151.002 382.331 152.648 382.331 155.834ZM376.999 152.648H373.574V172.186H376.999C379.561 172.186 380.58 171.089 380.58 168.398V156.409C380.58 153.718 379.561 152.648 376.999 152.648Z" fill="#2C2829"/>
<path d="M387.744 173.805H387.326C387.236 173.817 387.145 173.809 387.058 173.781C386.972 173.753 386.893 173.706 386.828 173.643C386.763 173.58 386.712 173.503 386.681 173.418C386.649 173.333 386.638 173.242 386.646 173.152V151.655C386.638 151.565 386.649 151.474 386.681 151.389C386.712 151.304 386.763 151.227 386.828 151.164C386.893 151.101 386.972 151.054 387.058 151.026C387.145 150.998 387.236 150.99 387.326 151.002H387.744C387.832 150.994 387.921 151.005 388.004 151.035C388.086 151.065 388.162 151.113 388.224 151.176C388.287 151.238 388.334 151.313 388.364 151.396C388.394 151.479 388.406 151.567 388.398 151.655V173.152C388.406 173.24 388.394 173.328 388.364 173.411C388.334 173.494 388.287 173.569 388.224 173.632C388.162 173.694 388.086 173.742 388.004 173.772C387.921 173.802 387.832 173.813 387.744 173.805Z" fill="#2C2829"/>
<path d="M403.404 163.148V169.234C403.404 172.499 401.652 174.066 398.202 174.066H397.94C394.49 174.066 392.738 172.525 392.738 169.234V155.573C392.738 152.439 394.49 150.741 397.94 150.741H398.202C401.652 150.741 403.404 152.439 403.404 155.573V157.872C403.416 157.965 403.407 158.06 403.377 158.149C403.348 158.238 403.299 158.32 403.233 158.387C403.168 158.455 403.088 158.507 403 158.54C402.912 158.573 402.818 158.585 402.724 158.577H402.306C401.887 158.577 401.652 158.316 401.652 157.872V156.148C401.652 153.457 400.633 152.386 398.071 152.386C395.509 152.386 394.49 153.457 394.49 156.148V168.659C394.49 171.35 395.509 172.421 398.071 172.421C400.633 172.421 401.652 171.35 401.652 168.659V164.088H398.594C398.505 164.101 398.414 164.094 398.329 164.066C398.243 164.037 398.166 163.99 398.102 163.926C398.039 163.863 397.991 163.785 397.963 163.7C397.935 163.615 397.927 163.524 397.94 163.435V163.148C397.932 163.06 397.944 162.972 397.974 162.889C398.004 162.806 398.051 162.731 398.114 162.668C398.176 162.606 398.252 162.558 398.334 162.528C398.417 162.498 398.506 162.487 398.594 162.495H402.724C402.813 162.487 402.902 162.499 402.986 162.529C403.071 162.558 403.147 162.606 403.212 162.668C403.276 162.729 403.326 162.804 403.359 162.887C403.393 162.97 403.408 163.059 403.404 163.148Z" fill="#2C2829"/>
<path d="M408.76 173.805H408.342C407.897 173.805 407.636 173.57 407.636 173.152V151.655C407.636 151.237 407.897 151.002 408.342 151.002H408.76C408.848 150.994 408.936 151.005 409.019 151.035C409.102 151.065 409.177 151.113 409.24 151.175C409.302 151.238 409.35 151.313 409.38 151.396C409.41 151.479 409.421 151.567 409.413 151.655V173.152C409.421 173.24 409.41 173.328 409.38 173.411C409.35 173.494 409.302 173.569 409.24 173.632C409.177 173.694 409.102 173.742 409.019 173.772C408.936 173.802 408.848 173.813 408.76 173.805Z" fill="#2C2829"/>
<path d="M422.536 151.655V151.969C422.544 152.06 422.532 152.152 422.501 152.238C422.469 152.324 422.419 152.402 422.355 152.466C422.29 152.531 422.212 152.581 422.126 152.612C422.04 152.644 421.948 152.656 421.856 152.648H418.249V173.152C418.249 173.57 417.988 173.805 417.543 173.805H417.125C417.037 173.813 416.949 173.802 416.866 173.772C416.783 173.742 416.707 173.694 416.645 173.632C416.583 173.569 416.535 173.494 416.505 173.411C416.475 173.328 416.463 173.24 416.471 173.152V152.648H412.864C412.773 152.656 412.681 152.644 412.595 152.612C412.509 152.581 412.431 152.531 412.366 152.466C412.301 152.402 412.251 152.324 412.22 152.238C412.189 152.152 412.176 152.06 412.184 151.969V151.655C412.176 151.565 412.188 151.474 412.219 151.389C412.25 151.304 412.301 151.227 412.366 151.164C412.432 151.101 412.51 151.054 412.597 151.026C412.683 150.998 412.774 150.99 412.864 151.002H421.856C421.946 150.99 422.038 150.998 422.124 151.026C422.21 151.054 422.289 151.101 422.354 151.164C422.42 151.227 422.47 151.304 422.501 151.389C422.533 151.474 422.545 151.565 422.536 151.655Z" fill="#2C2829"/>
<path d="M433.854 173.805H433.358C433.27 173.816 433.18 173.808 433.095 173.784C433.01 173.759 432.931 173.717 432.863 173.661C432.794 173.605 432.738 173.535 432.697 173.457C432.656 173.378 432.632 173.292 432.626 173.204L431.502 167.928H425.332L424.208 173.204C424.202 173.292 424.178 173.378 424.137 173.457C424.096 173.535 424.04 173.605 423.971 173.661C423.903 173.717 423.824 173.759 423.739 173.784C423.654 173.808 423.564 173.816 423.477 173.805H423.084C422.64 173.805 422.431 173.543 422.509 173.047L427.319 151.602C427.339 151.427 427.426 151.266 427.563 151.154C427.7 151.041 427.875 150.987 428.051 151.002H428.835C428.922 150.991 429.01 150.998 429.093 151.023C429.177 151.048 429.254 151.09 429.321 151.146C429.387 151.203 429.441 151.273 429.479 151.351C429.517 151.43 429.538 151.515 429.541 151.602L434.429 173.047C434.534 173.543 434.299 173.805 433.854 173.805ZM431.136 166.334L428.443 153.77L425.698 166.334H431.136Z" fill="#2C2829"/>
<path d="M446.089 172.813V173.152C446.097 173.242 446.086 173.333 446.054 173.418C446.023 173.503 445.972 173.58 445.907 173.643C445.842 173.706 445.763 173.753 445.677 173.781C445.59 173.809 445.499 173.817 445.409 173.805H438.22C437.776 173.805 437.515 173.57 437.515 173.152V151.655C437.515 151.237 437.776 151.002 438.22 151.002H438.639C438.727 150.994 438.815 151.005 438.898 151.035C438.981 151.065 439.056 151.113 439.119 151.175C439.181 151.238 439.229 151.313 439.259 151.396C439.289 151.479 439.3 151.567 439.292 151.655V172.186H445.409C445.827 172.186 446.089 172.395 446.089 172.813Z" fill="#2C2829"/>
<path d="M455.027 173.805H454.583C454.493 173.817 454.401 173.809 454.315 173.781C454.229 173.753 454.15 173.706 454.085 173.643C454.02 173.58 453.969 173.503 453.938 173.418C453.906 173.333 453.894 173.242 453.903 173.152V151.655C453.894 151.565 453.906 151.474 453.938 151.389C453.969 151.304 454.02 151.227 454.085 151.164C454.15 151.101 454.229 151.054 454.315 151.026C454.401 150.998 454.493 150.99 454.583 151.002H455.027C455.115 150.994 455.204 151.005 455.286 151.035C455.369 151.065 455.445 151.113 455.507 151.176C455.569 151.238 455.617 151.313 455.647 151.396C455.677 151.479 455.689 151.567 455.681 151.655V173.152C455.689 173.24 455.677 173.328 455.647 173.411C455.617 173.494 455.569 173.569 455.507 173.632C455.445 173.694 455.369 173.742 455.286 173.772C455.204 173.802 455.115 173.813 455.027 173.805Z" fill="#2C2829"/>
<path d="M461.167 173.805H460.801C460.711 173.817 460.619 173.809 460.533 173.781C460.447 173.753 460.368 173.706 460.303 173.643C460.237 173.58 460.187 173.503 460.156 173.418C460.124 173.333 460.112 173.242 460.121 173.152V151.655C460.112 151.565 460.124 151.474 460.156 151.389C460.187 151.304 460.237 151.227 460.303 151.164C460.368 151.101 460.447 151.054 460.533 151.026C460.619 150.998 460.711 150.99 460.801 151.002H461.402C461.569 150.989 461.735 151.034 461.873 151.129C462.011 151.224 462.113 151.364 462.16 151.524L469.427 169.626V151.655C469.415 151.569 469.422 151.481 469.449 151.398C469.476 151.315 469.521 151.239 469.581 151.176C469.642 151.113 469.716 151.065 469.798 151.034C469.88 151.004 469.967 150.993 470.054 151.002H470.42C470.51 150.99 470.602 150.998 470.688 151.026C470.774 151.054 470.853 151.101 470.918 151.164C470.984 151.227 471.034 151.304 471.065 151.389C471.097 151.474 471.109 151.565 471.1 151.655V173.152C471.109 173.242 471.097 173.333 471.065 173.418C471.034 173.503 470.984 173.58 470.918 173.643C470.853 173.706 470.774 173.753 470.688 173.781C470.602 173.809 470.51 173.817 470.42 173.805H469.924C469.759 173.822 469.594 173.778 469.459 173.682C469.324 173.586 469.229 173.444 469.192 173.283L461.82 155.051V173.152C461.828 173.24 461.817 173.328 461.787 173.411C461.757 173.494 461.709 173.569 461.646 173.632C461.584 173.694 461.509 173.742 461.426 173.772C461.343 173.802 461.254 173.813 461.167 173.805Z" fill="#2C2829"/>
<path d="M476.464 173.805H476.098C476.009 173.817 475.917 173.809 475.831 173.781C475.745 173.753 475.666 173.706 475.601 173.643C475.535 173.58 475.485 173.503 475.453 173.418C475.422 173.333 475.41 173.242 475.419 173.152V151.655C475.41 151.565 475.422 151.474 475.453 151.389C475.485 151.304 475.535 151.227 475.601 151.164C475.666 151.101 475.745 151.054 475.831 151.026C475.917 150.998 476.009 150.99 476.098 151.002H476.674C476.841 150.989 477.007 151.034 477.145 151.129C477.283 151.224 477.384 151.364 477.432 151.524L484.699 169.626V151.655C484.691 151.567 484.702 151.479 484.732 151.396C484.762 151.313 484.81 151.238 484.872 151.176C484.935 151.113 485.01 151.065 485.093 151.035C485.176 151.005 485.264 150.994 485.352 151.002H485.718C485.808 150.99 485.899 150.998 485.986 151.026C486.072 151.054 486.151 151.101 486.216 151.164C486.281 151.227 486.332 151.304 486.363 151.389C486.395 151.474 486.406 151.565 486.398 151.655V173.152C486.406 173.242 486.395 173.333 486.363 173.418C486.332 173.503 486.281 173.58 486.216 173.643C486.151 173.706 486.072 173.753 485.986 173.781C485.899 173.809 485.808 173.817 485.718 173.805H485.221C485.053 173.823 484.885 173.78 484.745 173.685C484.606 173.589 484.506 173.446 484.463 173.283L477.118 155.051V173.152C477.126 173.24 477.115 173.328 477.085 173.411C477.055 173.494 477.007 173.569 476.944 173.632C476.882 173.694 476.807 173.742 476.724 173.772C476.641 173.802 476.552 173.813 476.464 173.805Z" fill="#2C2829"/>
<path d="M495.779 150.741H496.04C499.491 150.741 501.242 152.386 501.242 155.573V169.234C501.242 172.421 499.491 174.066 496.04 174.066H495.779C492.328 174.066 490.551 172.421 490.551 169.234V155.573C490.551 152.334 492.328 150.741 495.779 150.741ZM495.91 172.421C498.471 172.421 499.491 171.35 499.491 168.659V156.148C499.491 153.457 498.471 152.386 495.91 152.386C493.348 152.386 492.328 153.457 492.328 156.148V168.659C492.328 171.35 493.322 172.421 495.91 172.421Z" fill="#2C2829"/>
<path d="M515.408 151.759L510.781 173.204C510.774 173.29 510.751 173.373 510.712 173.45C510.673 173.527 510.619 173.595 510.553 173.651C510.488 173.707 510.412 173.749 510.33 173.776C510.247 173.802 510.161 173.812 510.075 173.805H509.369C509.193 173.819 509.018 173.765 508.881 173.653C508.745 173.54 508.657 173.379 508.637 173.204L504.011 151.759C503.958 151.263 504.141 151.002 504.612 151.002H505.082C505.259 150.987 505.434 151.041 505.57 151.154C505.707 151.266 505.794 151.427 505.814 151.602L509.761 170.618L513.735 151.602C513.738 151.515 513.759 151.43 513.797 151.351C513.835 151.273 513.889 151.203 513.955 151.146C514.021 151.09 514.099 151.048 514.183 151.023C514.266 150.998 514.354 150.991 514.441 151.002H514.833C515.277 151.002 515.512 151.263 515.408 151.759Z" fill="#2C2829"/>
<path d="M527.514 173.805H527.017C526.931 173.816 526.843 173.808 526.759 173.783C526.675 173.759 526.598 173.716 526.531 173.66C526.465 173.603 526.411 173.534 526.373 173.455C526.335 173.377 526.314 173.291 526.311 173.204L525.161 167.928H519.018L517.868 173.204C517.862 173.292 517.837 173.378 517.796 173.457C517.756 173.535 517.699 173.605 517.631 173.661C517.562 173.717 517.483 173.759 517.398 173.784C517.313 173.808 517.224 173.816 517.136 173.805H516.77C516.3 173.805 516.117 173.543 516.169 173.047L521.005 151.602C521.008 151.515 521.029 151.43 521.067 151.351C521.105 151.273 521.159 151.203 521.225 151.146C521.291 151.09 521.369 151.048 521.452 151.023C521.536 150.998 521.624 150.991 521.711 151.002H522.495C522.581 150.991 522.669 150.998 522.753 151.023C522.836 151.048 522.914 151.09 522.98 151.146C523.047 151.203 523.101 151.273 523.139 151.351C523.177 151.43 523.198 151.515 523.201 151.602L528.089 173.047C528.193 173.543 527.958 173.805 527.514 173.805ZM524.795 166.334L522.103 153.77L519.358 166.334H524.795Z" fill="#2C2829"/>
<path d="M538.417 151.655V151.969C538.425 152.06 538.413 152.152 538.381 152.238C538.35 152.324 538.3 152.402 538.236 152.466C538.171 152.531 538.093 152.581 538.006 152.612C537.92 152.644 537.829 152.656 537.737 152.648H534.13V173.152C534.139 173.242 534.127 173.333 534.095 173.418C534.064 173.503 534.014 173.58 533.948 173.643C533.883 173.706 533.804 173.753 533.718 173.781C533.632 173.809 533.54 173.817 533.45 173.805H533.006C532.919 173.814 532.831 173.803 532.749 173.773C532.667 173.743 532.593 173.694 532.533 173.631C532.472 173.569 532.427 173.493 532.4 173.41C532.374 173.327 532.366 173.239 532.378 173.152V152.648H528.745C528.654 152.656 528.562 152.644 528.476 152.612C528.39 152.581 528.311 152.531 528.247 152.466C528.182 152.402 528.132 152.324 528.101 152.238C528.069 152.152 528.057 152.06 528.065 151.969V151.655C528.057 151.565 528.068 151.474 528.1 151.389C528.131 151.304 528.182 151.227 528.247 151.164C528.312 151.101 528.391 151.054 528.477 151.026C528.564 150.998 528.655 150.99 528.745 151.002H537.737C537.827 150.99 537.919 150.998 538.005 151.026C538.091 151.054 538.17 151.101 538.235 151.164C538.301 151.227 538.351 151.304 538.382 151.389C538.414 151.474 538.426 151.565 538.417 151.655Z" fill="#2C2829"/>
<path d="M542.256 173.805H541.838C541.748 173.817 541.656 173.809 541.57 173.781C541.484 173.753 541.405 173.706 541.34 173.643C541.274 173.58 541.224 173.503 541.193 173.418C541.161 173.333 541.149 173.242 541.158 173.152V151.655C541.149 151.565 541.161 151.474 541.193 151.389C541.224 151.304 541.274 151.227 541.34 151.164C541.405 151.101 541.484 151.054 541.57 151.026C541.656 150.998 541.748 150.99 541.838 151.002H542.256C542.345 150.989 542.436 150.996 542.521 151.025C542.606 151.053 542.684 151.1 542.747 151.164C542.811 151.227 542.859 151.305 542.887 151.39C542.915 151.475 542.923 151.566 542.909 151.655V173.152C542.923 173.241 542.915 173.331 542.887 173.417C542.859 173.502 542.811 173.579 542.747 173.643C542.684 173.706 542.606 173.754 542.521 173.782C542.436 173.81 542.345 173.818 542.256 173.805Z" fill="#2C2829"/>
<path d="M552.477 150.741H552.712C556.189 150.741 557.94 152.386 557.94 155.573V169.234C557.94 172.421 556.189 174.066 552.712 174.066H552.477C549 174.066 547.249 172.421 547.249 169.234V155.573C547.249 152.334 549 150.741 552.477 150.741ZM552.582 172.421C555.17 172.421 556.189 171.35 556.189 168.659V156.148C556.189 153.457 555.17 152.386 552.582 152.386C549.994 152.386 549 153.457 549 156.148V168.659C549 171.35 550.02 172.421 552.582 172.421Z" fill="#2C2829"/>
<path d="M563.142 173.805H562.802C562.358 173.805 562.097 173.57 562.097 173.152V151.655C562.097 151.237 562.358 151.002 562.802 151.002H563.378C563.545 150.989 563.711 151.034 563.849 151.129C563.987 151.224 564.088 151.364 564.136 151.524L571.403 169.626V151.655C571.389 151.566 571.397 151.475 571.425 151.39C571.454 151.305 571.501 151.227 571.565 151.164C571.628 151.1 571.706 151.053 571.791 151.025C571.877 150.996 571.967 150.989 572.056 151.002H572.396C572.486 150.99 572.577 150.998 572.664 151.026C572.75 151.054 572.829 151.101 572.894 151.164C572.959 151.227 573.01 151.304 573.041 151.389C573.073 151.474 573.084 151.565 573.076 151.655V173.152C573.084 173.242 573.073 173.333 573.041 173.418C573.01 173.503 572.959 173.58 572.894 173.643C572.829 173.706 572.75 173.753 572.664 173.781C572.577 173.809 572.486 173.817 572.396 173.805H571.925C571.757 173.823 571.589 173.78 571.449 173.684C571.31 173.588 571.21 173.446 571.167 173.283L563.796 155.051V173.152C563.809 173.241 563.801 173.331 563.773 173.417C563.745 173.502 563.697 173.579 563.634 173.643C563.57 173.706 563.493 173.754 563.407 173.782C563.322 173.81 563.231 173.818 563.142 173.805Z" fill="#2C2829"/>
<defs>
<linearGradient id="paint0_linear_164_317" x1="7.50523" y1="126.201" x2="100.387" y2="126.201" gradientUnits="userSpaceOnUse">
<stop stop-color="#1C75BC"/>
<stop offset="0.25" stop-color="#1D7CC1"/>
<stop offset="0.62" stop-color="#218FCE"/>
<stop offset="1" stop-color="#27AAE1"/>
</linearGradient>
<linearGradient id="paint1_linear_164_317" x1="2.75784" y1="108.857" x2="140.784" y2="108.857" gradientUnits="userSpaceOnUse">
<stop stop-color="#00A79D"/>
<stop offset="0.29" stop-color="#07A996"/>
<stop offset="0.71" stop-color="#1AB084"/>
<stop offset="1" stop-color="#2BB673"/>
</linearGradient>
</defs>
</svg>
